<svg width="32" height="32" viewBox="0 0 32 32" fill="none" xmlns="http://www.w3.org/2000/svg">
<path fill-rule="evenodd" clip-rule="evenodd" d="M17.5646 8.77114C18.159 8.23252 18.9378 7.94312 19.7398 7.96286C20.5417 7.98261 21.3053 8.30998 21.8726 8.87721C22.4398 9.44443 22.7672 10.2081 22.7869 11.01C22.8067 11.8119 22.5173 12.5907 21.9786 13.1852C21.9727 13.1917 21.9667 13.1981 21.9605 13.2044L14.2027 21.0716C14.1945 21.0799 14.186 21.088 14.1773 21.0959C13.8206 21.4191 13.3534 21.5927 12.8722 21.5809C12.391 21.569 11.9329 21.3726 11.5925 21.0322C11.2522 20.6919 11.0558 20.2337 11.0439 19.7526C11.0321 19.2714 11.2057 18.8041 11.5289 18.4474C11.5346 18.4411 11.5405 18.4349 11.5464 18.4289L18.0542 11.8117C18.2963 11.5656 18.692 11.5623 18.9381 11.8043C19.1842 12.0463 19.1875 12.4421 18.9455 12.6882L12.4482 19.2947C12.345 19.4125 12.2897 19.5649 12.2935 19.7218C12.2975 19.8822 12.363 20.0349 12.4764 20.1484C12.5899 20.2618 12.7426 20.3273 12.903 20.3312C13.0585 20.3351 13.2097 20.2807 13.3271 20.1792L21.0605 12.3368C21.3784 11.9813 21.549 11.5178 21.5373 11.0408C21.5254 10.5596 21.329 10.1014 20.9887 9.76109C20.6483 9.42075 20.1902 9.22433 19.709 9.21248C19.2333 9.20077 18.7711 9.37037 18.416 9.68655L10.6684 17.5434C10.0832 18.1286 9.75439 18.9223 9.75439 19.7499C9.75439 20.5775 10.0832 21.3712 10.6684 21.9564C11.2536 22.5416 12.0473 22.8704 12.8749 22.8704C13.7024 22.8704 14.4961 22.5416 15.0813 21.9564L21.4959 15.5574C21.7403 15.3137 22.1361 15.3141 22.3798 15.5585C22.6236 15.8029 22.6231 16.1986 22.3788 16.4424L15.9652 22.8403C15.1456 23.6599 14.034 24.1204 12.8749 24.1204C11.7157 24.1204 10.6041 23.6599 9.78447 22.8403C8.96485 22.0207 8.50439 20.909 8.50439 19.7499C8.50439 18.5916 8.96425 17.4806 9.78286 16.6612L17.5392 8.79546C17.5474 8.78711 17.5559 8.77901 17.5646 8.77114Z" fill="#0E1114"/>
</svg>
